<!-- Generator: Adobe Illustrator 19.1.0, SVG Export Plug-In  -->
<svg version="1.1"
	 xmlns="http://www.w3.org/2000/svg" xmlns:xlink="http://www.w3.org/1999/xlink" xmlns:a="http://ns.adobe.com/AdobeSVGViewerExtensions/3.0/"
	 x="0px" y="0px" width="192px" height="192px" viewBox="0 0 192 192" style="overflow:scroll;enable-background:new 0 0 192 192;"
	 xml:space="preserve">
<style type="text/css">
	.st0{fill:#FFFFFF;}
</style>
<defs>
</defs>
<circle cx="96" cy="96" r="96"/>
<g>
	<path class="st0" d="M56.6,46.9c-3,0-5.2-3.8-5.2-4.1c0-0.1,0-0.2,0.1-0.2c0.1,0,0.2,0.2,0.4,0.2c0.3,0.2,0.8,0.2,1.1,0.2
		c3.5,0,6.7-3.4,7.6-4.4c-0.9-2-0.9-3.8-0.9-4.1c0-2.5,1.3-2.7,1.8-2.7c1.3,0,2.7,1.5,2.7,4.1c0,1-0.2,2.4-0.8,4.1
		c2.4,3.1,6.6,4.3,9.3,4.8c1.2,0.2,3.2,0.5,3.2,2.6c0,1.4-1,2.6-2.9,2.6c-2.3,0-7.7-2.5-10.6-7.8C61.8,43.3,60,46.9,56.6,46.9z
		 M62.1,35.1c0-1-0.4-1.8-0.9-1.8c-0.6,0-0.6,1-0.6,1.3c0,0.5,0.1,1.6,0.8,2.7C61.7,36.7,62.1,36,62.1,35.1z M72.9,31.8
		c1.7,0,3,1.4,3,3c0,1.7-1.4,3-3,3c-1.6,0-3-1.4-3-3S71.2,31.8,72.9,31.8z M72.9,36.7c1,0,1.9-0.8,1.9-1.9c0-1-0.8-1.8-1.9-1.8
		c-1,0-1.8,0.8-1.8,1.8C71,35.9,71.9,36.7,72.9,36.7z"/>
	<path class="st0" d="M89.1,43c-0.3,0-1.8,0.2-2.1,0.2c-0.4,0-0.5-0.2-0.7-0.9c-0.4-1.4-0.6-1.4-1.3-1.6c-0.1,0-0.1-0.1-0.1-0.2
		c0-0.1,0.1-0.2,0.2-0.2h15c1.1,0,1.7-0.1,2.2-0.6c0.7-0.7,1.2-1.2,2.2-1.2c1.4,0,2.5,1.4,2.5,2.5c0,1-1,1.9-2.8,1.9H89.1z"/>
	<path class="st0" d="M125.1,37.3c-0.1,0.9-0.6,3.8-0.6,6c0,1,0,5.4,4.7,5.4c3.7,0,5.2-3.4,5.2-5.4c0-0.2-0.2-1.2-0.2-1.3
		c0-0.1,0.1-0.1,0.1-0.1c0.2,0,1.6,1.3,1.6,4c0,3-2,7.5-7.2,7.5c-6.9,0-7.7-6.5-7.7-9.4c0-1.2,0.2-6.3,0.2-7.4c0-1.7,0-5.3-0.7-6
		c-0.1,0-0.6-0.2-0.6-0.3c0-0.2,0.7-0.2,1-0.2c4.6,0,4.6,2.4,4.6,3.5C125.5,34.6,125.5,34.7,125.1,37.3z M133.7,35.7
		c-0.7,0-1.5-0.5-1.5-1.2c0-0.2,0.1-0.8,0.1-1c0-0.3-0.1-0.6-0.3-0.7c-0.2-0.1-0.3-0.1-0.3-0.2c0-0.2,0.7-0.2,1-0.2
		c1.2,0,2.5,0.2,2.5,1.7C135.2,35.1,134.4,35.7,133.7,35.7z M138.4,35.7c-0.7,0-1.5-0.5-1.5-1.2c0-0.2,0.1-0.8,0.1-1
		c0-0.5-0.2-0.6-0.4-0.7c-0.1,0-0.2,0-0.2-0.2c0-0.2,0.7-0.2,1-0.2c1.2,0,2.5,0.2,2.5,1.7C139.8,35.1,139.1,35.7,138.4,35.7z"/>
</g>
<g>
	<path class="st0" d="M53,120.1c0.4-0.4,0.9-0.8,1.2-0.8c0.3,0,0.5,0.3,0.5,0.5s-0.5,0.8-0.9,1.3c-0.8,0.9-0.9,1.6-0.9,2.3
		c0,1.3,0.5,2.7,1.7,5.9c1.4,3.6,2.1,5.2,2.1,7.3c0,3.6-3.4,8.6-8.8,8.6c-3.6,0-17.9-0.9-23.1-30.8c-0.8-4.3-3.6-25.5-4.3-26.7
		c-0.4-0.7-0.9-0.9-2-1c-0.5-0.1-0.6-0.1-0.6-0.5c0-0.8,3.1-0.8,3.8-0.8c10.8,0,11.4,6.4,12.5,15.6c1.8,17.7,4.7,21.8,9.9,26.8
		L53,120.1z M97,110.6c0,6.4-4.6,8.1-7.2,8.1c-5.5,0-6.4-4.9-7.4-10.7c-0.4-2.5-1.8-10.7-7.5-11.7c-1-0.3-1.2-0.3-1.2-0.5
		c0-1,4.4-1.2,5.3-1.2C94.1,94.6,97,105.8,97,110.6z"/>
	<path class="st0" d="M121.4,75.1c0.1-1,0.5-3.5,0.5-4.4c0-2.3-0.8-2.6-1.6-2.9c-0.3-0.1-0.4-0.4-0.4-0.5c0-0.5,0.3-0.5,0.5-0.5
		c0.4,0,15.1,2.1,13.8,9.9L131.6,93H156c2.9,0,4.6-0.8,6-2.5c2.1-2.3,3.1-3.6,5.5-3.6c2.7,0,5.5,2.3,5.5,5.5c0,2.3-1.6,5.1-6.1,5.1
		h-35.9c-0.5,3.1-1.8,12.5-1.8,15.3c0,4.6,2.6,4.6,3.6,4.6c0.8,0,8.7-2.3,9.8-2.6c5.9-1.8,9-2.1,11.3-2.1c9.6,0,15.1,6.6,15.1,15.7
		c0,16-17.3,27.2-29.8,27.2c-8.8,0-12-5.3-12-9.6c0-1,0.4-3,0.9-3c0.3,0,0.5,0.5,0.8,1.2c1.2,2.9,5.7,2.9,6.5,2.9
		c9.1,0,18.7-7.3,18.7-15.9c0-2.3-1.2-8.1-10.3-8.1c-4,0-6.6,0.8-12.7,3.3c-3.5,1.4-5.7,2.3-8.2,2.3c-3.8,0-9.1-2.6-9.1-9.5
		c0-1.6,0.1-4.3,1.8-12.7c0.3-1.4,1.6-7.7,1.8-9H102c-0.6,0-3.1,0.3-3.6,0.3c-0.8,0-2.6-2.9-3.1-3.3c-0.3-0.1-1.6-0.6-1.6-0.9
		c0-0.5,0.4-0.5,0.6-0.5h23.9L121.4,75.1z"/>
</g>
</svg>
