<!-- Generator: Adobe Illustrator 19.1.0, SVG Export Plug-In  -->
<svg version="1.1"
	 xmlns="http://www.w3.org/2000/svg" xmlns:xlink="http://www.w3.org/1999/xlink" xmlns:a="http://ns.adobe.com/AdobeSVGViewerExtensions/3.0/"
	 x="0px" y="0px" width="192px" height="192px" viewBox="0 0 192 192" style="overflow:scroll;enable-background:new 0 0 192 192;"
	 xml:space="preserve">
<style type="text/css">
	.st0{fill:#FFFFFF;}
</style>
<defs>
</defs>
<circle cx="96" cy="96" r="96"/>
<g>
	<path class="st0" d="M56.6,46.9c-3,0-5.2-3.8-5.2-4.1c0-0.1,0-0.2,0.1-0.2c0.1,0,0.2,0.2,0.4,0.2c0.3,0.2,0.8,0.2,1.1,0.2
		c3.5,0,6.7-3.4,7.6-4.4c-0.9-2-0.9-3.8-0.9-4.1c0-2.5,1.3-2.7,1.8-2.7c1.3,0,2.7,1.5,2.7,4.1c0,1-0.2,2.4-0.8,4.1
		c2.4,3.1,6.6,4.3,9.3,4.8c1.2,0.2,3.2,0.5,3.2,2.6c0,1.4-1,2.6-2.9,2.6c-2.3,0-7.7-2.5-10.6-7.8C61.8,43.3,60,46.9,56.6,46.9z
		 M62.1,35.1c0-1-0.4-1.8-0.9-1.8c-0.6,0-0.6,1-0.6,1.3c0,0.5,0.1,1.6,0.8,2.7C61.7,36.7,62.1,36,62.1,35.1z M72.9,31.8
		c1.7,0,3,1.4,3,3c0,1.7-1.4,3-3,3c-1.6,0-3-1.4-3-3S71.2,31.8,72.9,31.8z M72.9,36.7c1,0,1.9-0.8,1.9-1.9c0-1-0.8-1.8-1.9-1.8
		c-1,0-1.8,0.8-1.8,1.8C71,35.9,71.9,36.7,72.9,36.7z"/>
	<path class="st0" d="M89.1,43c-0.3,0-1.8,0.2-2.1,0.2c-0.4,0-0.5-0.2-0.7-0.9c-0.4-1.4-0.6-1.4-1.3-1.6c-0.1,0-0.1-0.1-0.1-0.2
		c0-0.1,0.1-0.2,0.2-0.2h15c1.1,0,1.7-0.1,2.2-0.6c0.7-0.7,1.2-1.2,2.2-1.2c1.4,0,2.5,1.4,2.5,2.5c0,1-1,1.9-2.8,1.9H89.1z"/>
	<path class="st0" d="M125.1,37.3c-0.1,0.9-0.6,3.8-0.6,6c0,1,0,5.4,4.7,5.4c3.7,0,5.2-3.4,5.2-5.4c0-0.2-0.2-1.2-0.2-1.3
		c0-0.1,0.1-0.1,0.1-0.1c0.2,0,1.6,1.3,1.6,4c0,3-2,7.5-7.2,7.5c-6.9,0-7.7-6.5-7.7-9.4c0-1.2,0.2-6.3,0.2-7.4c0-1.7,0-5.3-0.7-6
		c-0.1,0-0.6-0.2-0.6-0.3c0-0.2,0.7-0.2,1-0.2c4.6,0,4.6,2.4,4.6,3.5C125.5,34.6,125.5,34.7,125.1,37.3z M133.7,35.7
		c-0.7,0-1.5-0.5-1.5-1.2c0-0.2,0.1-0.8,0.1-1c0-0.3-0.1-0.6-0.3-0.7c-0.2-0.1-0.3-0.1-0.3-0.2c0-0.2,0.7-0.2,1-0.2
		c1.2,0,2.5,0.2,2.5,1.7C135.2,35.1,134.4,35.7,133.7,35.7z M138.4,35.7c-0.7,0-1.5-0.5-1.5-1.2c0-0.2,0.1-0.8,0.1-1
		c0-0.5-0.2-0.6-0.4-0.7c-0.1,0-0.2,0-0.2-0.2c0-0.2,0.7-0.2,1-0.2c1.2,0,2.5,0.2,2.5,1.7C139.8,35.1,139.1,35.7,138.4,35.7z"/>
</g>
<g>
	<path class="st0" d="M79.6,94.7c2.5,0,4.3-0.5,6-2.5c2-2.3,3.1-3.6,5.5-3.6c2.7,0,5.5,2.3,5.5,5.5c0,2.5-1.7,4.9-6.1,4.9H69.9
		l1.8,9.5c0.8,4.2,0.9,4.7,0.9,5.7c0,5.1-5.1,8.1-9,8.1c-2,0-10.1-1-12-1c-6.8,0-10.8,3.6-10.8,7.3c0,8.7,14.7,8.7,17.9,8.8
		c2.6,0,10.3,0,10.3,7.4c0,4.2-3,8.2-9.9,8.2c-11.6,0-25.7-9.6-25.7-21.7c0-10,9-11.6,12.4-12.2c8.7-1.6,12.7-2.3,12.7-8.3
		c0-2.3-0.5-4.9-0.8-6.2l-1-5.5H31.5c-0.5,0-3,0.4-3.5,0.4c-0.6,0-2.5-2.6-2.9-3c-0.3-0.3-2-0.8-2-1.2c0-0.4,0.3-0.5,0.6-0.5h32.1
		l-3.4-17.4c-1.2-6-1.4-6.5-2.2-7.2c-0.3-0.1-1.7-0.6-1.7-0.9c0-0.9,3.9-0.9,4.6-0.9c10.9,0,11.7,4,12.4,7.7l3.6,18.7H79.6z"/>
	<path class="st0" d="M133,80.5c1.3-3.3,1.8-4.4,1.8-5.6c0-0.8-0.1-1-0.5-1.4c-0.4-0.3-0.6-0.4-0.6-0.8c0-0.3,0.1-0.5,0.5-0.5
		c0.4,0,9.8,4,9.8,9.1c0,0.4,0,1.4-0.8,3.4l-11.3,28.2c7.2,0.9,11.4,6.8,14.7,11.6c5.9,8.8,8.3,12.6,14.4,12.6c5.6,0,9.5-4,9.5-10.1
		c0-0.8,0-3-1.3-4.8c-0.3-0.4-0.4-0.4-0.4-0.5c0-0.3,0.4-0.4,0.5-0.4c0.7,0,7.4,3.8,7.4,12c0,6.6-5.5,17.2-17.7,17.2
		c-13,0.1-17.2-9.4-21.5-19.2c-3-6.8-4.8-9.9-9.4-9.2c-5.1,12.5-10,24.4-20.3,24.4c-4,0-8.1-3.8-8.1-9.5c0-4.8,2.7-15.1,19.2-22.2
		L133,80.5z M106.2,132.4c0,1.3,0.9,1.7,1.7,1.7c2.6,0,3.9-2.7,6.8-8.8C112.6,126,106.2,128.9,106.2,132.4z"/>
</g>
</svg>
