<!-- Generator: Adobe Illustrator 19.1.0, SVG Export Plug-In  -->
<svg version="1.1"
	 xmlns="http://www.w3.org/2000/svg" xmlns:xlink="http://www.w3.org/1999/xlink" xmlns:a="http://ns.adobe.com/AdobeSVGViewerExtensions/3.0/"
	 x="0px" y="0px" width="192px" height="192px" viewBox="0 0 192 192" style="overflow:scroll;enable-background:new 0 0 192 192;"
	 xml:space="preserve">
<style type="text/css">
	.st0{fill:#FFFFFF;}
</style>
<defs>
</defs>
<circle cx="96" cy="96" r="96"/>
<g>
	<path class="st0" d="M56.6,46.9c-3,0-5.2-3.8-5.2-4.1c0-0.1,0-0.2,0.1-0.2c0.1,0,0.2,0.2,0.4,0.2c0.3,0.2,0.8,0.2,1.1,0.2
		c3.5,0,6.7-3.4,7.6-4.4c-0.9-2-0.9-3.8-0.9-4.1c0-2.5,1.3-2.7,1.8-2.7c1.3,0,2.7,1.5,2.7,4.1c0,1-0.2,2.4-0.8,4.1
		c2.4,3.1,6.6,4.3,9.3,4.8c1.2,0.2,3.2,0.5,3.2,2.6c0,1.4-1,2.6-2.9,2.6c-2.3,0-7.7-2.5-10.6-7.8C61.8,43.3,60,46.9,56.6,46.9z
		 M62.1,35.1c0-1-0.4-1.8-0.9-1.8c-0.6,0-0.6,1-0.6,1.3c0,0.5,0.1,1.6,0.8,2.7C61.7,36.7,62.1,36,62.1,35.1z M72.9,31.8
		c1.7,0,3,1.4,3,3c0,1.7-1.4,3-3,3c-1.6,0-3-1.4-3-3S71.2,31.8,72.9,31.8z M72.9,36.7c1,0,1.9-0.8,1.9-1.9c0-1-0.8-1.8-1.9-1.8
		c-1,0-1.8,0.8-1.8,1.8C71,35.9,71.9,36.7,72.9,36.7z"/>
	<path class="st0" d="M89.1,43c-0.3,0-1.8,0.2-2.1,0.2c-0.4,0-0.5-0.2-0.7-0.9c-0.4-1.4-0.6-1.4-1.3-1.6c-0.1,0-0.1-0.1-0.1-0.2
		c0-0.1,0.1-0.2,0.2-0.2h15c1.1,0,1.7-0.1,2.2-0.6c0.7-0.7,1.2-1.2,2.2-1.2c1.4,0,2.5,1.4,2.5,2.5c0,1-1,1.9-2.8,1.9H89.1z"/>
	<path class="st0" d="M125.1,37.3c-0.1,0.9-0.6,3.8-0.6,6c0,1,0,5.4,4.7,5.4c3.7,0,5.2-3.4,5.2-5.4c0-0.2-0.2-1.2-0.2-1.3
		c0-0.1,0.1-0.1,0.1-0.1c0.2,0,1.6,1.3,1.6,4c0,3-2,7.5-7.2,7.5c-6.9,0-7.7-6.5-7.7-9.4c0-1.2,0.2-6.3,0.2-7.4c0-1.7,0-5.3-0.7-6
		c-0.1,0-0.6-0.2-0.6-0.3c0-0.2,0.7-0.2,1-0.2c4.6,0,4.6,2.4,4.6,3.5C125.5,34.6,125.5,34.7,125.1,37.3z M133.7,35.7
		c-0.7,0-1.5-0.5-1.5-1.2c0-0.2,0.1-0.8,0.1-1c0-0.3-0.1-0.6-0.3-0.7c-0.2-0.1-0.3-0.1-0.3-0.2c0-0.2,0.7-0.2,1-0.2
		c1.2,0,2.5,0.2,2.5,1.7C135.2,35.1,134.4,35.7,133.7,35.7z M138.4,35.7c-0.7,0-1.5-0.5-1.5-1.2c0-0.2,0.1-0.8,0.1-1
		c0-0.5-0.2-0.6-0.4-0.7c-0.1,0-0.2,0-0.2-0.2c0-0.2,0.7-0.2,1-0.2c1.2,0,2.5,0.2,2.5,1.7C139.8,35.1,139.1,35.7,138.4,35.7z"/>
</g>
<g>
	<path class="st0" d="M90.4,81.5c-3.6,0-6.9,0.8-11.1,3.6c-1.6,1.2-1.8,1.2-2.2,1.2c-0.5,0-2.7-1.7-3.3-1.8c-0.1,0-1.6-0.4-1.6-0.7
		c0-0.8,15.6-8.1,28.6-8.1c10,0,17.9,4.2,17.9,11.3c0,6-5.2,9.8-8.7,9.8c-1.4,0-2.1-0.3-6.9-2.5c-2.5-1-4.6-1.7-6.2-1.7
		c-6.9,0-21.1,12.2-21.1,26.4c0,13.9,13.4,15,17.8,15c3.8,0,7.5-0.5,8.8-0.8c2.2-0.4,7-1.2,8.2-1.2c4.8,0,9.1,3.4,9.1,8.2
		c0,10.9-18.7,11-20.7,11c-19.4,0-29-12.2-29-26.7c0-14.2,7.7-24.7,28.7-41.5C95.2,81.5,91.5,81.5,90.4,81.5z M120.8,116.8
		c-2.1,0-4.7-1.4-4.7-4.2c0-0.5,0.3-2.7,0.3-3.1c0-1.6-0.6-2.1-1.4-2.2c-0.3-0.1-0.7-0.1-0.7-0.5c0-0.8,2.2-0.8,3.1-0.8
		c6.5,0,8.3,2.3,8.3,6C125.7,114.2,123.8,116.8,120.8,116.8z M136,116.8c-2.5,0-4.7-1.8-4.7-4.2c0-0.4,0.3-2.6,0.3-3.1
		c0-1.7-0.8-2.1-1.4-2.2c-0.3-0.1-0.7-0.1-0.7-0.5c0-0.8,2.2-0.8,3-0.8c4,0,8.5,0.8,8.5,5.7C140.9,114.9,138.5,116.8,136,116.8z"/>
</g>
</svg>
